<?xml version="1.0" encoding="UTF-8" standalone="no"?>
<svg width="512px" height="512px" viewBox="0 0 512 512" version="1.1" xmlns="http://www.w3.org/2000/svg" xmlns:xlink="http://www.w3.org/1999/xlink" style="background: #FFFFFF;">
    <!-- Generator: Sketch 40.2 (33826) - http://www.bohemiancoding.com/sketch -->
    <title>Logo</title>
    <desc>Created with Sketch.</desc>
    <defs>
        <linearGradient x1="50%" y1="0%" x2="50%" y2="100%" id="linearGradient-1">
            <stop stop-color="#EC5F5F" offset="0%"></stop>
            <stop stop-color="#AF5A5A" offset="100%"></stop>
        </linearGradient>
    </defs>
    <g id="Logo" stroke="none" stroke-width="1" fill="none" fill-rule="evenodd">
        <g fill="url(#linearGradient-1)">
            <path d="M339.792541,321.080763 C327.207243,307.15674 307.7971,296.808594 304.058594,296.808594 C297.876953,292.830078 261.602539,285.567383 222.855469,272.101563 C184.108398,258.635742 185.35607,258.09922 162.3125,243.425781 C151.645278,236.633222 135.803333,225.440936 124.995117,207.891602 C115.626055,192.679027 109.193637,172.269054 110.46875,150.222656 C111.537109,131.750977 121.081055,99.1230469 140.228516,81.7890625 C154.577982,68.7986497 162.3125,58.5292969 204.199219,45.4707031 C228.547801,37.8797949 257.084634,37.2429838 282.33631,40.2487294 C271.792264,52.6144595 263.833284,67.2515912 259.295573,83.3239209 C249.039732,83.4305168 237.80064,84.6158923 225.542969,87.1230469 C194.508789,93.4707031 173.913964,115.224052 170.091797,136.457031 C166.209961,158.021484 168.944336,165.794922 173.828125,177.705078 C179.518346,191.581889 204.252465,211.622858 242.707031,224.847656 C267.820678,233.484418 297.282949,237.09571 322.326172,248.589844 C347.116211,259.967773 353.639195,264.605106 366.354492,273.97168 C366.980836,274.433068 367.602974,274.899032 368.220816,275.369909 C354.019536,286.672296 343.749432,302.703259 339.79254,321.080767 Z M350.795233,381.417108 C348.27511,390.360875 343.281501,399.50913 331.483398,411.305664 C314.333659,428.453125 266.453855,430.538505 243.738281,428.490234 C232.041667,427.435547 213.183191,424.11106 196.873047,415.082031 C183.313796,407.575852 173.353104,399.214954 168.595703,392.380859 C158.115723,377.326172 154.625488,348.431152 154.625488,348.431152 L98.8867188,348.431152 C98.8867188,348.431152 98.6193868,373.257328 103.069824,385.561035 C108.543945,400.694824 113.050307,409.623184 119.261719,416.992188 C126.71398,425.833291 153.374023,453.084961 185.306152,463.743652 C220.641602,476.557129 256.495605,478.824707 278.115234,476.557129 C293.302734,475.666504 313.510735,472.427037 333.00293,464.967285 C366.186453,452.267799 389.324519,428.778338 398.131319,415.51333 C378.384777,410.466849 361.578097,398.073459 350.795232,381.417112 Z" id="Combined-Shape"></path>
            <circle id="Oval-13" cx="279.5" cy="74.5" r="9.5"></circle>
            <circle id="Oval-3" cx="295" cy="53" r="9"></circle>
            <circle id="Oval-4" cx="310" cy="78" r="12"></circle>
            <circle id="Oval-5" cx="334" cy="67" r="8"></circle>
            <circle id="Oval-6" cx="340.5" cy="98.5" r="10.5"></circle>
            <circle id="Oval-14" cx="360.5" cy="84.5" r="9.5"></circle>
            <circle id="Oval-7" cx="375" cy="112" r="15"></circle>
            <circle id="Oval-8" cx="358" cy="133" r="8"></circle>
            <circle id="Oval-9" cx="393.5" cy="135.5" r="7.5"></circle>
            <circle id="Oval-10" cx="379.5" cy="152.5" r="7.5"></circle>
            <circle id="Oval-11" cx="399.5" cy="158.5" r="5.5"></circle>
            <circle id="Oval-12" cx="361" cy="156" r="8"></circle>
            <circle id="Oval-15" cx="382.5" cy="306.5" r="8.5"></circle>
            <circle id="Oval-16" cx="378" cy="332" r="12"></circle>
            <circle id="Oval-16" cx="359.5" cy="309.5" r="9.5"></circle>
            <circle id="Oval-16" cx="352" cy="334" r="10"></circle>
            <circle id="Oval-16" cx="362.5" cy="352.5" r="7.5"></circle>
            <circle id="Oval-16" cx="371" cy="380" r="9"></circle>
            <circle id="Oval-16" cx="355" cy="369" r="6"></circle>
            <circle id="Oval-16" cx="386" cy="398" r="8"></circle>
            <circle id="Oval-16" cx="369" cy="290" r="8"></circle>
            <circle id="Oval-16" cx="348" cy="353" r="6"></circle>
            <circle id="Oval-17" cx="396.5" cy="320.5" r="6.5"></circle>
            <circle id="Oval-18" cx="399" cy="352" r="9"></circle>
            <circle id="Oval-19" cx="379.5" cy="359.5" r="7.5"></circle>
            <circle id="Oval-20" cx="396" cy="378" r="12"></circle>
        </g>
    </g>
</svg>