<?xml version="1.0" encoding="UTF-8" standalone="no"?>
<svg width="512px" height="512px" viewBox="0 0 512 512" version="1.1" xmlns="http://www.w3.org/2000/svg" xmlns:xlink="http://www.w3.org/1999/xlink" style="background: #FFFFFF;">
    <!-- Generator: Sketch 40.2 (33826) - http://www.bohemiancoding.com/sketch -->
    <title>Logo</title>
    <desc>Created with Sketch.</desc>
    <defs>
        <linearGradient x1="50%" y1="0%" x2="50%" y2="100%" id="linearGradient-1">
            <stop stop-color="#EC5F5F" offset="0%"></stop>
            <stop stop-color="#AF5A5A" offset="100%"></stop>
        </linearGradient>
    </defs>
    <g id="Logo" stroke="none" stroke-width="1" fill="none" fill-rule="evenodd">
        <g fill="url(#linearGradient-1)">
            <path d="M402.067125,407.903831 C401.880388,408.396874 401.694323,408.883405 401.509277,409.363281 C397.494629,419.774414 372.288636,449.932466 333.00293,464.967285 C313.510735,472.427037 293.302734,475.666504 278.115234,476.557129 C256.495605,478.824707 220.641602,476.557129 185.306152,463.743652 C153.374023,453.084961 126.71398,425.833291 119.261719,416.992188 C113.050307,409.623184 108.543945,400.694824 103.069824,385.561035 C98.6193868,373.257328 98.8867188,348.431152 98.8867188,348.431152 L154.625488,348.431152 C154.625488,348.431152 158.115723,377.326172 168.595703,392.380859 C173.353104,399.214954 183.313796,407.575852 196.873047,415.082031 C213.183191,424.11106 232.041667,427.435547 243.738281,428.490234 C266.453855,430.538505 314.333659,428.453125 331.483398,411.305664 C348.633138,394.158203 351.405273,382.606445 353.102051,369.144531 C354.315483,359.517387 354.011835,346.858395 348.558594,334.133789 C339.992508,314.145664 308.897584,296.808594 304.058594,296.808594 C297.876953,292.830078 261.602539,285.567383 222.855469,272.101563 C184.108398,258.635742 185.35607,258.09922 162.3125,243.425781 C151.645278,236.633222 135.803333,225.440936 124.995117,207.891602 C115.626055,192.679027 109.193637,172.269054 110.46875,150.222656 C111.537109,131.750977 121.081055,99.1230469 140.228516,81.7890625 C154.577982,68.7986497 162.3125,58.5292969 204.199219,45.4707031 C228.547801,37.8797949 257.084634,37.2429838 282.33631,40.2487294 C271.792264,52.6144595 263.833284,67.2515912 259.295573,83.3239209 C249.039732,83.4305168 237.80064,84.6158923 225.542969,87.1230469 C194.508789,93.4707031 173.913964,115.224052 170.091797,136.457031 C166.209961,158.021484 168.944336,165.794922 173.828125,177.705078 C179.518346,191.581889 204.252465,211.622858 242.707031,224.847656 C267.820678,233.484418 297.282949,237.09571 322.326172,248.589844 C347.116211,259.967773 353.639195,264.605106 366.354492,273.97168 C371.281622,277.601192 375.948515,281.513802 380.310892,285.874588 C368.274528,299.87555 361,318.088246 361,338 C361,368.04967 377.567814,394.22972 402.067125,407.903831 Z" id="Combined-Shape"></path>
            <circle id="Oval-13" cx="279.5" cy="74.5" r="9.5"></circle>
            <circle id="Oval-3" cx="295" cy="53" r="9"></circle>
            <circle id="Oval-4" cx="310" cy="78" r="12"></circle>
            <circle id="Oval-5" cx="334" cy="67" r="8"></circle>
            <circle id="Oval-6" cx="340.5" cy="98.5" r="10.5"></circle>
            <circle id="Oval-14" cx="360.5" cy="84.5" r="9.5"></circle>
            <circle id="Oval-7" cx="375" cy="112" r="15"></circle>
            <circle id="Oval-8" cx="358" cy="133" r="8"></circle>
            <circle id="Oval-9" cx="393.5" cy="135.5" r="7.5"></circle>
            <circle id="Oval-10" cx="379.5" cy="152.5" r="7.5"></circle>
            <circle id="Oval-11" cx="399.5" cy="158.5" r="5.5"></circle>
            <circle id="Oval-12" cx="361" cy="156" r="8"></circle>
            <circle id="Oval-15" cx="382.5" cy="306.5" r="8.5"></circle>
            <circle id="Oval-16" cx="378" cy="332" r="12"></circle>
            <circle id="Oval-17" cx="396.5" cy="320.5" r="6.5"></circle>
            <circle id="Oval-18" cx="399" cy="352" r="9"></circle>
            <circle id="Oval-19" cx="379.5" cy="359.5" r="7.5"></circle>
            <circle id="Oval-20" cx="396" cy="378" r="12"></circle>
        </g>
    </g>
</svg>